<svg width="800" height="600" viewBox="0 0 800 600" fill="none" xmlns="http://www.w3.org/2000/svg">
<g clip-path="url(#clip0_11_63)">
<rect width="800" height="600" fill="#BEBEBE"/>
<path d="M575.407 521.5C575.407 663.161 431.019 778 252.907 778C74.7952 778 -69.593 663.161 -69.593 521.5C-69.593 379.839 74.7952 265 252.907 265C431.019 265 575.407 379.839 575.407 521.5Z" fill="#253518"/>
<g filter="url(#filter0_d_11_63)">
<ellipse cx="738.81" cy="422.054" rx="407" ry="241" transform="rotate(-9.37097 738.81 422.054)" fill="#253518"/>
</g>
<g filter="url(#filter1_d_11_63)">
<ellipse cx="66.5" cy="559.5" rx="248.5" ry="197.5" fill="#2B3F1B"/>
</g>
<g filter="url(#filter2_d_11_63)">
<ellipse cx="440" cy="678" rx="331" ry="316" fill="#2B3F1B"/>
</g>
<g filter="url(#filter3_d_11_63)">
<path d="M1131 567.5C1131 718.55 1003.18 841 845.5 841C687.823 841 560 718.55 560 567.5C560 416.45 687.823 294 845.5 294C1003.18 294 1131 416.45 1131 567.5Z" fill="#2B3F1B"/>
</g>
<g filter="url(#filter4_d_11_63)">
<ellipse cx="18.5" cy="80.5" rx="127.5" ry="95.5" fill="#706C6C"/>
</g>
<g filter="url(#filter5_d_11_63)">
<ellipse cx="194.5" cy="22.5" rx="127.5" ry="95.5" fill="#706C6C"/>
</g>
<g filter="url(#filter6_d_11_63)">
<ellipse cx="719.5" cy="-3.5" rx="127.5" ry="95.5" fill="#706C6C"/>
</g>
<g filter="url(#filter7_d_11_63)">
<ellipse cx="540.5" cy="48.5" rx="131.5" ry="95.5" fill="#706C6C"/>
</g>
<g filter="url(#filter8_d_11_63)">
<ellipse cx="366.522" cy="3.11535" rx="128.072" ry="132.401" transform="rotate(-15.9481 366.522 3.11535)" fill="#706C6C"/>
</g>
<path d="M162.519 224C162.519 224 166.232 233.535 164.573 235.668C162.915 237.801 162.226 237.048 160.465 235.668C158.703 234.288 162.519 224 162.519 224Z" fill="#3977EF"/>
<path d="M342.519 212C342.519 212 346.232 221.535 344.573 223.668C342.915 225.801 342.226 225.048 340.465 223.668C338.703 222.288 342.519 212 342.519 212Z" fill="#3977EF"/>
<path d="M21.519 183C21.519 183 25.232 192.535 23.5734 194.668C21.9148 196.801 21.2264 196.048 19.4646 194.668C17.7029 193.288 21.519 183 21.519 183Z" fill="#3977EF"/>
<path d="M243.519 328C243.519 328 247.232 337.535 245.573 339.668C243.915 341.801 243.226 341.048 241.465 339.668C239.703 338.288 243.519 328 243.519 328Z" fill="#3977EF"/>
<path d="M417.519 397C417.519 397 421.232 406.535 419.573 408.668C417.915 410.801 417.226 410.048 415.465 408.668C413.703 407.288 417.519 397 417.519 397Z" fill="#3977EF"/>
<path d="M489.519 118C489.519 118 493.232 127.535 491.573 129.668C489.915 131.801 489.226 131.048 487.465 129.668C485.703 128.288 489.519 118 489.519 118Z" fill="#3977EF"/>
<path d="M245.519 131C245.519 131 249.232 140.535 247.573 142.668C245.915 144.801 245.226 144.048 243.465 142.668C241.703 141.288 245.519 131 245.519 131Z" fill="#3977EF"/>
<path d="M498.519 504C498.519 504 502.232 513.535 500.573 515.668C498.915 517.801 498.226 517.048 496.465 515.668C494.703 514.288 498.519 504 498.519 504Z" fill="#3977EF"/>
<path d="M607.519 215C607.519 215 611.232 224.535 609.573 226.668C607.915 228.801 607.226 228.048 605.465 226.668C603.703 225.288 607.519 215 607.519 215Z" fill="#3977EF"/>
<path d="M687.519 100C687.519 100 691.232 109.535 689.573 111.668C687.915 113.801 687.226 113.048 685.465 111.668C683.703 110.288 687.519 100 687.519 100Z" fill="#3977EF"/>
<path d="M716.519 508C716.519 508 720.232 517.535 718.573 519.668C716.915 521.801 716.226 521.048 714.465 519.668C712.703 518.288 716.519 508 716.519 508Z" fill="#3977EF"/>
<path d="M58.519 377C58.519 377 62.232 386.535 60.5734 388.668C58.9148 390.801 58.2264 390.048 56.4646 388.668C54.7029 387.288 58.519 377 58.519 377Z" fill="#3977EF"/>
<path d="M737.519 365C737.519 365 741.232 374.535 739.573 376.668C737.915 378.801 737.226 378.048 735.465 376.668C733.703 375.288 737.519 365 737.519 365Z" fill="#3977EF"/>
<path d="M589.519 340C589.519 340 593.232 349.535 591.573 351.668C589.915 353.801 589.226 353.048 587.465 351.668C585.703 350.288 589.519 340 589.519 340Z" fill="#3977EF"/>
<path d="M752.519 175C752.519 175 756.232 184.535 754.573 186.668C752.915 188.801 752.226 188.048 750.465 186.668C748.703 185.288 752.519 175 752.519 175Z" fill="#3977EF"/>
<path d="M452.534 277C452.534 277 459.218 289.469 456.232 292.258C453.247 295.047 452.008 294.063 448.836 292.258C445.665 290.453 452.534 277 452.534 277Z" fill="#3977EF"/>
<path d="M113.534 498C113.534 498 120.218 510.469 117.232 513.258C114.247 516.047 113.008 515.063 109.836 513.258C106.665 511.453 113.534 498 113.534 498Z" fill="#3977EF"/>
<path d="M297.534 549C297.534 549 304.218 561.469 301.232 564.258C298.247 567.047 297.008 566.063 293.836 564.258C290.665 562.453 297.534 549 297.534 549Z" fill="#3977EF"/>
</g>
<defs>
<filter id="filter0_d_11_63" x="302.299" y="170.146" width="847.021" height="533.817" filterUnits="userSpaceOnUse" color-interpolation-filters="sRGB">
<feFlood flood-opacity="0" result="BackgroundImageFix"/>
<feColorMatrix in="SourceAlpha" type="matrix" values="0 0 0 0 0 0 0 0 0 0 0 0 0 0 0 0 0 0 127 0" result="hardAlpha"/>
<feOffset dx="-13" dy="15"/>
<feGaussianBlur stdDeviation="10"/>
<feComposite in2="hardAlpha" operator="out"/>
<feColorMatrix type="matrix" values="0 0 0 0 0.027451 0 0 0 0 0.184314 0 0 0 0 0.00392157 0 0 0 1 0"/>
<feBlend mode="normal" in2="BackgroundImageFix" result="effect1_dropShadow_11_63"/>
<feBlend mode="normal" in="SourceGraphic" in2="effect1_dropShadow_11_63" result="shape"/>
</filter>
<filter id="filter1_d_11_63" x="-202" y="342" width="537" height="435" filterUnits="userSpaceOnUse" color-interpolation-filters="sRGB">
<feFlood flood-opacity="0" result="BackgroundImageFix"/>
<feColorMatrix in="SourceAlpha" type="matrix" values="0 0 0 0 0 0 0 0 0 0 0 0 0 0 0 0 0 0 127 0" result="hardAlpha"/>
<feOffset/>
<feGaussianBlur stdDeviation="10"/>
<feComposite in2="hardAlpha" operator="out"/>
<feColorMatrix type="matrix" values="0 0 0 0 0.027451 0 0 0 0 0.184314 0 0 0 0 0.00392157 0 0 0 1 0"/>
<feBlend mode="normal" in2="BackgroundImageFix" result="effect1_dropShadow_11_63"/>
<feBlend mode="normal" in="SourceGraphic" in2="effect1_dropShadow_11_63" result="shape"/>
</filter>
<filter id="filter2_d_11_63" x="89" y="342" width="702" height="672" filterUnits="userSpaceOnUse" color-interpolation-filters="sRGB">
<feFlood flood-opacity="0" result="BackgroundImageFix"/>
<feColorMatrix in="SourceAlpha" type="matrix" values="0 0 0 0 0 0 0 0 0 0 0 0 0 0 0 0 0 0 127 0" result="hardAlpha"/>
<feOffset/>
<feGaussianBlur stdDeviation="10"/>
<feComposite in2="hardAlpha" operator="out"/>
<feColorMatrix type="matrix" values="0 0 0 0 0.027451 0 0 0 0 0.184314 0 0 0 0 0.00392157 0 0 0 1 0"/>
<feBlend mode="normal" in2="BackgroundImageFix" result="effect1_dropShadow_11_63"/>
<feBlend mode="normal" in="SourceGraphic" in2="effect1_dropShadow_11_63" result="shape"/>
</filter>
<filter id="filter3_d_11_63" x="540" y="274" width="611" height="587" filterUnits="userSpaceOnUse" color-interpolation-filters="sRGB">
<feFlood flood-opacity="0" result="BackgroundImageFix"/>
<feColorMatrix in="SourceAlpha" type="matrix" values="0 0 0 0 0 0 0 0 0 0 0 0 0 0 0 0 0 0 127 0" result="hardAlpha"/>
<feOffset/>
<feGaussianBlur stdDeviation="10"/>
<feComposite in2="hardAlpha" operator="out"/>
<feColorMatrix type="matrix" values="0 0 0 0 0.0288206 0 0 0 0 0.183333 0 0 0 0 0.00458333 0 0 0 1 0"/>
<feBlend mode="normal" in2="BackgroundImageFix" result="effect1_dropShadow_11_63"/>
<feBlend mode="normal" in="SourceGraphic" in2="effect1_dropShadow_11_63" result="shape"/>
</filter>
<filter id="filter4_d_11_63" x="-119" y="-20" width="275" height="211" filterUnits="userSpaceOnUse" color-interpolation-filters="sRGB">
<feFlood flood-opacity="0" result="BackgroundImageFix"/>
<feColorMatrix in="SourceAlpha" type="matrix" values="0 0 0 0 0 0 0 0 0 0 0 0 0 0 0 0 0 0 127 0" result="hardAlpha"/>
<feOffset dy="5"/>
<feGaussianBlur stdDeviation="5"/>
<feComposite in2="hardAlpha" operator="out"/>
<feColorMatrix type="matrix" values="0 0 0 0 0.533333 0 0 0 0 0.495556 0 0 0 0 0.495556 0 0 0 1 0"/>
<feBlend mode="normal" in2="BackgroundImageFix" result="effect1_dropShadow_11_63"/>
<feBlend mode="normal" in="SourceGraphic" in2="effect1_dropShadow_11_63" result="shape"/>
</filter>
<filter id="filter5_d_11_63" x="57" y="-78" width="275" height="211" filterUnits="userSpaceOnUse" color-interpolation-filters="sRGB">
<feFlood flood-opacity="0" result="BackgroundImageFix"/>
<feColorMatrix in="SourceAlpha" type="matrix" values="0 0 0 0 0 0 0 0 0 0 0 0 0 0 0 0 0 0 127 0" result="hardAlpha"/>
<feOffset dy="5"/>
<feGaussianBlur stdDeviation="5"/>
<feComposite in2="hardAlpha" operator="out"/>
<feColorMatrix type="matrix" values="0 0 0 0 0.533333 0 0 0 0 0.495556 0 0 0 0 0.495556 0 0 0 1 0"/>
<feBlend mode="normal" in2="BackgroundImageFix" result="effect1_dropShadow_11_63"/>
<feBlend mode="normal" in="SourceGraphic" in2="effect1_dropShadow_11_63" result="shape"/>
</filter>
<filter id="filter6_d_11_63" x="582" y="-104" width="275" height="211" filterUnits="userSpaceOnUse" color-interpolation-filters="sRGB">
<feFlood flood-opacity="0" result="BackgroundImageFix"/>
<feColorMatrix in="SourceAlpha" type="matrix" values="0 0 0 0 0 0 0 0 0 0 0 0 0 0 0 0 0 0 127 0" result="hardAlpha"/>
<feOffset dy="5"/>
<feGaussianBlur stdDeviation="5"/>
<feComposite in2="hardAlpha" operator="out"/>
<feColorMatrix type="matrix" values="0 0 0 0 0.533333 0 0 0 0 0.495556 0 0 0 0 0.495556 0 0 0 1 0"/>
<feBlend mode="normal" in2="BackgroundImageFix" result="effect1_dropShadow_11_63"/>
<feBlend mode="normal" in="SourceGraphic" in2="effect1_dropShadow_11_63" result="shape"/>
</filter>
<filter id="filter7_d_11_63" x="399" y="-52" width="283" height="211" filterUnits="userSpaceOnUse" color-interpolation-filters="sRGB">
<feFlood flood-opacity="0" result="BackgroundImageFix"/>
<feColorMatrix in="SourceAlpha" type="matrix" values="0 0 0 0 0 0 0 0 0 0 0 0 0 0 0 0 0 0 127 0" result="hardAlpha"/>
<feOffset dy="5"/>
<feGaussianBlur stdDeviation="5"/>
<feComposite in2="hardAlpha" operator="out"/>
<feColorMatrix type="matrix" values="0 0 0 0 0.533333 0 0 0 0 0.495556 0 0 0 0 0.495556 0 0 0 1 0"/>
<feBlend mode="normal" in2="BackgroundImageFix" result="effect1_dropShadow_11_63"/>
<feBlend mode="normal" in="SourceGraphic" in2="effect1_dropShadow_11_63" result="shape"/>
</filter>
<filter id="filter8_d_11_63" x="228.085" y="-133.998" width="276.875" height="284.226" filterUnits="userSpaceOnUse" color-interpolation-filters="sRGB">
<feFlood flood-opacity="0" result="BackgroundImageFix"/>
<feColorMatrix in="SourceAlpha" type="matrix" values="0 0 0 0 0 0 0 0 0 0 0 0 0 0 0 0 0 0 127 0" result="hardAlpha"/>
<feOffset dy="5"/>
<feGaussianBlur stdDeviation="5"/>
<feComposite in2="hardAlpha" operator="out"/>
<feColorMatrix type="matrix" values="0 0 0 0 0.533333 0 0 0 0 0.495556 0 0 0 0 0.495556 0 0 0 1 0"/>
<feBlend mode="normal" in2="BackgroundImageFix" result="effect1_dropShadow_11_63"/>
<feBlend mode="normal" in="SourceGraphic" in2="effect1_dropShadow_11_63" result="shape"/>
</filter>
<clipPath id="clip0_11_63">
<rect width="800" height="600" fill="white"/>
</clipPath>
</defs>
</svg>
