<svg width="800" height="600" viewBox="0 0 800 600" fill="none" xmlns="http://www.w3.org/2000/svg">
<g clip-path="url(#clip0_15_214)">
<rect width="800" height="600" fill="#8BC1FF"/>
<path d="M575.407 521.5C575.407 663.161 431.019 778 252.907 778C74.7952 778 -69.593 663.161 -69.593 521.5C-69.593 379.839 74.7952 265 252.907 265C431.019 265 575.407 379.839 575.407 521.5Z" fill="#64A032"/>
<g filter="url(#filter0_d_15_214)">
<ellipse cx="738.81" cy="422.054" rx="407" ry="241" transform="rotate(-9.37097 738.81 422.054)" fill="#64A032"/>
</g>
<circle cx="173" cy="91" r="58" fill="#FFC84B"/>
<g filter="url(#filter1_d_15_214)">
<ellipse cx="66.5" cy="559.5" rx="248.5" ry="197.5" fill="#73BE41"/>
</g>
<g filter="url(#filter2_d_15_214)">
<ellipse cx="459" cy="672" rx="331" ry="316" fill="#73BE41"/>
</g>
<g filter="url(#filter3_d_15_214)">
<path d="M1131 567.5C1131 718.55 1003.18 841 845.5 841C687.823 841 560 718.55 560 567.5C560 416.45 687.823 294 845.5 294C1003.18 294 1131 416.45 1131 567.5Z" fill="#73BE41"/>
</g>
<ellipse cx="327" cy="120.324" rx="53" ry="43.5" transform="rotate(-9.08664 327 120.324)" fill="#DDDDDD"/>
<ellipse cx="381.844" cy="136.958" rx="52.5766" ry="39" transform="rotate(-14.7962 381.844 136.958)" fill="#DDDDDD"/>
<ellipse cx="322.5" cy="151.824" rx="82.5" ry="35" fill="#DDDDDD"/>
<ellipse rx="36.6594" ry="31.3795" transform="matrix(0.986314 -0.164879 0.151256 0.988495 582.108 51.0629)" fill="#DDDDDD"/>
<ellipse rx="36.4341" ry="28.0852" transform="matrix(0.963938 -0.266128 0.245011 0.96952 619.999 63.0747)" fill="#DDDDDD"/>
<ellipse cx="578.998" cy="73.8099" rx="56.9985" ry="25.2746" fill="#DDDDDD"/>
<rect width="800" height="600" fill="#F8A75D" fill-opacity="0.25"/>
</g>
<defs>
<filter id="filter0_d_15_214" x="302.299" y="170.145" width="847.021" height="533.817" filterUnits="userSpaceOnUse" color-interpolation-filters="sRGB">
<feFlood flood-opacity="0" result="BackgroundImageFix"/>
<feColorMatrix in="SourceAlpha" type="matrix" values="0 0 0 0 0 0 0 0 0 0 0 0 0 0 0 0 0 0 127 0" result="hardAlpha"/>
<feOffset dx="-13" dy="15"/>
<feGaussianBlur stdDeviation="10"/>
<feComposite in2="hardAlpha" operator="out"/>
<feColorMatrix type="matrix" values="0 0 0 0 0.027451 0 0 0 0 0.184314 0 0 0 0 0.00392157 0 0 0 1 0"/>
<feBlend mode="normal" in2="BackgroundImageFix" result="effect1_dropShadow_15_214"/>
<feBlend mode="normal" in="SourceGraphic" in2="effect1_dropShadow_15_214" result="shape"/>
</filter>
<filter id="filter1_d_15_214" x="-202" y="342" width="537" height="435" filterUnits="userSpaceOnUse" color-interpolation-filters="sRGB">
<feFlood flood-opacity="0" result="BackgroundImageFix"/>
<feColorMatrix in="SourceAlpha" type="matrix" values="0 0 0 0 0 0 0 0 0 0 0 0 0 0 0 0 0 0 127 0" result="hardAlpha"/>
<feOffset/>
<feGaussianBlur stdDeviation="10"/>
<feComposite in2="hardAlpha" operator="out"/>
<feColorMatrix type="matrix" values="0 0 0 0 0.027451 0 0 0 0 0.184314 0 0 0 0 0.00392157 0 0 0 1 0"/>
<feBlend mode="normal" in2="BackgroundImageFix" result="effect1_dropShadow_15_214"/>
<feBlend mode="normal" in="SourceGraphic" in2="effect1_dropShadow_15_214" result="shape"/>
</filter>
<filter id="filter2_d_15_214" x="108" y="336" width="702" height="672" filterUnits="userSpaceOnUse" color-interpolation-filters="sRGB">
<feFlood flood-opacity="0" result="BackgroundImageFix"/>
<feColorMatrix in="SourceAlpha" type="matrix" values="0 0 0 0 0 0 0 0 0 0 0 0 0 0 0 0 0 0 127 0" result="hardAlpha"/>
<feOffset/>
<feGaussianBlur stdDeviation="10"/>
<feComposite in2="hardAlpha" operator="out"/>
<feColorMatrix type="matrix" values="0 0 0 0 0.027451 0 0 0 0 0.184314 0 0 0 0 0.00392157 0 0 0 1 0"/>
<feBlend mode="normal" in2="BackgroundImageFix" result="effect1_dropShadow_15_214"/>
<feBlend mode="normal" in="SourceGraphic" in2="effect1_dropShadow_15_214" result="shape"/>
</filter>
<filter id="filter3_d_15_214" x="540" y="274" width="611" height="587" filterUnits="userSpaceOnUse" color-interpolation-filters="sRGB">
<feFlood flood-opacity="0" result="BackgroundImageFix"/>
<feColorMatrix in="SourceAlpha" type="matrix" values="0 0 0 0 0 0 0 0 0 0 0 0 0 0 0 0 0 0 127 0" result="hardAlpha"/>
<feOffset/>
<feGaussianBlur stdDeviation="10"/>
<feComposite in2="hardAlpha" operator="out"/>
<feColorMatrix type="matrix" values="0 0 0 0 0.0288206 0 0 0 0 0.183333 0 0 0 0 0.00458333 0 0 0 1 0"/>
<feBlend mode="normal" in2="BackgroundImageFix" result="effect1_dropShadow_15_214"/>
<feBlend mode="normal" in="SourceGraphic" in2="effect1_dropShadow_15_214" result="shape"/>
</filter>
<clipPath id="clip0_15_214">
<rect width="800" height="600" fill="white"/>
</clipPath>
</defs>
</svg>
