<svg width="800" height="600" viewBox="0 0 800 600" fill="none" xmlns="http://www.w3.org/2000/svg">
<g clip-path="url(#clip0_13_113)">
<rect width="800" height="600" fill="#BEBEBE"/>
<path d="M575.407 521.5C575.407 663.161 431.019 778 252.907 778C74.7952 778 -69.593 663.161 -69.593 521.5C-69.593 379.839 74.7952 265 252.907 265C431.019 265 575.407 379.839 575.407 521.5Z" fill="#2B3F1B"/>
<g filter="url(#filter0_d_13_113)">
<ellipse cx="738.81" cy="422.054" rx="407" ry="241" transform="rotate(-9.37097 738.81 422.054)" fill="#2B3F1B"/>
</g>
<g filter="url(#filter1_d_13_113)">
<ellipse cx="66.5" cy="559.5" rx="248.5" ry="197.5" fill="#305319"/>
</g>
<path d="M149.541 460.05C149.827 433.306 165.439 390.772 241.736 446.415C281.498 475.413 361.881 392.102 360.794 493.834C344.33 515.422 324.082 550.707 241.062 509.459C213.701 492.262 148.408 566.037 149.541 460.05Z" fill="#C4C4C4" fill-opacity="0.1"/>
<path d="M457.127 408.387C466.689 436.053 441.978 484.387 365.127 424.387C325.078 393.119 213.874 443.821 245.627 373.887C263.669 334.151 268.374 336.821 331.374 320.821C412.374 300.249 431.874 335.321 457.127 408.387Z" fill="#C4C4C4" fill-opacity="0.5"/>
<g filter="url(#filter2_d_13_113)">
<ellipse cx="459" cy="672" rx="331" ry="316" fill="#305319"/>
</g>
<g filter="url(#filter3_d_13_113)">
<path d="M1131 567.5C1131 718.55 1003.18 841 845.5 841C687.823 841 560 718.55 560 567.5C560 416.45 687.823 294 845.5 294C1003.18 294 1131 416.45 1131 567.5Z" fill="#305319"/>
</g>
<circle cx="173" cy="91" r="58" fill="#F0CA74"/>
<ellipse rx="54.6224" ry="43.5018" transform="matrix(0.988208 -0.153119 0.16288 0.986646 204.732 94.2846)" fill="#6B6969"/>
<ellipse rx="54.1189" ry="39.0529" transform="matrix(0.968782 -0.247913 0.263044 0.964784 261.298 110.906)" fill="#6B6969"/>
<ellipse cx="200.091" cy="125.76" rx="85.0906" ry="34.9729" fill="#6B6969"/>
<ellipse rx="23.2638" ry="18.6405" transform="matrix(0.988059 -0.154078 0.161868 0.986812 473.211 44.9792)" fill="#6B6969"/>
<ellipse rx="23.055" ry="16.7296" transform="matrix(0.968399 -0.249406 0.261481 0.965209 497.299 52.1025)" fill="#6B6969"/>
<ellipse cx="471.235" cy="58.4686" rx="36.2347" ry="14.9884" fill="#6B6969"/>
<path d="M244.191 397.5C244.191 426.771 229.041 473.5 152.191 413.5C112.141 382.232 -45.3091 477.5 32.6908 363C32.6908 333.729 99.0453 307.5 140.845 307.5C215.345 307.5 244.191 281.5 244.191 397.5Z" fill="#C4C4C4" fill-opacity="0.5"/>
<path d="M519 375.532C519 409.774 514.07 472 479 472C380 462.532 365 529 291.5 462.532C260.175 434.204 364.43 356.344 399.5 356.344C457.5 326.5 519 341.29 519 375.532Z" fill="#C4C4C4" fill-opacity="0.25"/>
<path d="M502.161 452.844C482.165 425.047 437.269 341.466 485.836 314.907C518.336 297.135 571.335 336.682 651.145 260.844C688.835 225.028 679.614 349.212 651.145 369.692C622.676 390.171 522.156 480.641 502.161 452.844Z" fill="#C4C4C4" fill-opacity="0.35"/>
<path d="M600.825 431.937C580.829 404.14 647.481 343.662 667.566 314.941C679.481 283.162 673.98 207.162 749.809 222.162C892.98 222.162 778.278 328.305 749.809 348.785C721.34 369.264 620.821 459.733 600.825 431.937Z" fill="#C4C4C4" fill-opacity="0.35"/>
</g>
<defs>
<filter id="filter0_d_13_113" x="302.299" y="170.146" width="847.021" height="533.817" filterUnits="userSpaceOnUse" color-interpolation-filters="sRGB">
<feFlood flood-opacity="0" result="BackgroundImageFix"/>
<feColorMatrix in="SourceAlpha" type="matrix" values="0 0 0 0 0 0 0 0 0 0 0 0 0 0 0 0 0 0 127 0" result="hardAlpha"/>
<feOffset dx="-13" dy="15"/>
<feGaussianBlur stdDeviation="10"/>
<feComposite in2="hardAlpha" operator="out"/>
<feColorMatrix type="matrix" values="0 0 0 0 0.027451 0 0 0 0 0.184314 0 0 0 0 0.00392157 0 0 0 1 0"/>
<feBlend mode="normal" in2="BackgroundImageFix" result="effect1_dropShadow_13_113"/>
<feBlend mode="normal" in="SourceGraphic" in2="effect1_dropShadow_13_113" result="shape"/>
</filter>
<filter id="filter1_d_13_113" x="-202" y="342" width="537" height="435" filterUnits="userSpaceOnUse" color-interpolation-filters="sRGB">
<feFlood flood-opacity="0" result="BackgroundImageFix"/>
<feColorMatrix in="SourceAlpha" type="matrix" values="0 0 0 0 0 0 0 0 0 0 0 0 0 0 0 0 0 0 127 0" result="hardAlpha"/>
<feOffset/>
<feGaussianBlur stdDeviation="10"/>
<feComposite in2="hardAlpha" operator="out"/>
<feColorMatrix type="matrix" values="0 0 0 0 0.027451 0 0 0 0 0.184314 0 0 0 0 0.00392157 0 0 0 1 0"/>
<feBlend mode="normal" in2="BackgroundImageFix" result="effect1_dropShadow_13_113"/>
<feBlend mode="normal" in="SourceGraphic" in2="effect1_dropShadow_13_113" result="shape"/>
</filter>
<filter id="filter2_d_13_113" x="108" y="336" width="702" height="672" filterUnits="userSpaceOnUse" color-interpolation-filters="sRGB">
<feFlood flood-opacity="0" result="BackgroundImageFix"/>
<feColorMatrix in="SourceAlpha" type="matrix" values="0 0 0 0 0 0 0 0 0 0 0 0 0 0 0 0 0 0 127 0" result="hardAlpha"/>
<feOffset/>
<feGaussianBlur stdDeviation="10"/>
<feComposite in2="hardAlpha" operator="out"/>
<feColorMatrix type="matrix" values="0 0 0 0 0.027451 0 0 0 0 0.184314 0 0 0 0 0.00392157 0 0 0 1 0"/>
<feBlend mode="normal" in2="BackgroundImageFix" result="effect1_dropShadow_13_113"/>
<feBlend mode="normal" in="SourceGraphic" in2="effect1_dropShadow_13_113" result="shape"/>
</filter>
<filter id="filter3_d_13_113" x="540" y="274" width="611" height="587" filterUnits="userSpaceOnUse" color-interpolation-filters="sRGB">
<feFlood flood-opacity="0" result="BackgroundImageFix"/>
<feColorMatrix in="SourceAlpha" type="matrix" values="0 0 0 0 0 0 0 0 0 0 0 0 0 0 0 0 0 0 127 0" result="hardAlpha"/>
<feOffset/>
<feGaussianBlur stdDeviation="10"/>
<feComposite in2="hardAlpha" operator="out"/>
<feColorMatrix type="matrix" values="0 0 0 0 0.0288206 0 0 0 0 0.183333 0 0 0 0 0.00458333 0 0 0 1 0"/>
<feBlend mode="normal" in2="BackgroundImageFix" result="effect1_dropShadow_13_113"/>
<feBlend mode="normal" in="SourceGraphic" in2="effect1_dropShadow_13_113" result="shape"/>
</filter>
<clipPath id="clip0_13_113">
<rect width="800" height="600" fill="white"/>
</clipPath>
</defs>
</svg>
