<svg width="800" height="600" viewBox="0 0 800 600" fill="none" xmlns="http://www.w3.org/2000/svg">
<g clip-path="url(#clip0_13_82)">
<rect width="800" height="600" fill="#BEBEBE"/>
<path d="M575.407 521.5C575.407 663.161 431.019 778 252.907 778C74.7952 778 -69.593 663.161 -69.593 521.5C-69.593 379.839 74.7952 265 252.907 265C431.019 265 575.407 379.839 575.407 521.5Z" fill="#2B3F1B"/>
<g filter="url(#filter0_d_13_82)">
<ellipse cx="738.81" cy="422.054" rx="407" ry="241" transform="rotate(-9.37097 738.81 422.054)" fill="#2B3F1B"/>
</g>
<path d="M231.888 411.491C231.888 440.762 216.739 487.491 139.888 427.491C99.8385 396.223 -57.6119 491.491 20.3881 376.991C20.3881 347.72 86.7426 321.491 128.543 321.491C203.043 321.491 231.888 295.491 231.888 411.491Z" fill="#C4C4C4" fill-opacity="0.25"/>
<g filter="url(#filter1_d_13_82)">
<ellipse cx="66.5" cy="559.5" rx="248.5" ry="197.5" fill="#305319"/>
</g>
<path d="M107.009 497.764C91.428 476.025 78.8743 432.491 173.306 432.262C222.518 432.143 238.097 317.429 297.363 400.122C296.847 427.266 301.377 467.695 210.034 483.508C177.798 485.814 168.754 583.916 107.009 497.764Z" fill="#C4C4C4" fill-opacity="0.25"/>
<path d="M879.774 247.694C887.353 285.017 798.331 314.641 767.134 334.125C742.49 360.512 689.816 401.365 585.383 399.986C447.832 380.422 666.652 268.844 702.449 261.574C738.245 254.305 872.194 210.372 879.774 247.694Z" fill="#C4C4C4" fill-opacity="0.2"/>
<g filter="url(#filter2_d_13_82)">
<ellipse cx="459" cy="672" rx="331" ry="316" fill="#305319"/>
</g>
<path d="M498.01 301.935C543.111 332.868 550.331 396.433 498.01 414.504C462.997 426.596 417.35 378.749 325.991 440.186C282.846 469.2 312.688 348.303 344.179 332.868C375.67 317.433 442.611 301.935 498.01 301.935Z" fill="#C4C4C4" fill-opacity="0.35"/>
<g filter="url(#filter3_d_13_82)">
<path d="M1131 567.5C1131 718.55 1003.18 841 845.5 841C687.823 841 560 718.55 560 567.5C560 416.45 687.823 294 845.5 294C1003.18 294 1131 416.45 1131 567.5Z" fill="#305319"/>
</g>
<circle cx="173" cy="91" r="58" fill="#F0CA74"/>
<ellipse rx="54.6224" ry="43.5018" transform="matrix(0.988208 -0.153119 0.16288 0.986646 204.732 94.2846)" fill="#6B6969"/>
<ellipse rx="54.1189" ry="39.0529" transform="matrix(0.968782 -0.247913 0.263044 0.964784 261.298 110.906)" fill="#6B6969"/>
<ellipse cx="200.091" cy="125.76" rx="85.0906" ry="34.9729" fill="#6B6969"/>
<ellipse rx="23.2638" ry="18.6405" transform="matrix(0.988059 -0.154078 0.161868 0.986812 473.211 44.9792)" fill="#6B6969"/>
<ellipse rx="23.055" ry="16.7296" transform="matrix(0.968399 -0.249406 0.261481 0.965209 497.299 52.1025)" fill="#6B6969"/>
<ellipse cx="471.235" cy="58.4686" rx="36.2347" ry="14.9884" fill="#6B6969"/>
</g>
<defs>
<filter id="filter0_d_13_82" x="302.299" y="170.146" width="847.021" height="533.817" filterUnits="userSpaceOnUse" color-interpolation-filters="sRGB">
<feFlood flood-opacity="0" result="BackgroundImageFix"/>
<feColorMatrix in="SourceAlpha" type="matrix" values="0 0 0 0 0 0 0 0 0 0 0 0 0 0 0 0 0 0 127 0" result="hardAlpha"/>
<feOffset dx="-13" dy="15"/>
<feGaussianBlur stdDeviation="10"/>
<feComposite in2="hardAlpha" operator="out"/>
<feColorMatrix type="matrix" values="0 0 0 0 0.027451 0 0 0 0 0.184314 0 0 0 0 0.00392157 0 0 0 1 0"/>
<feBlend mode="normal" in2="BackgroundImageFix" result="effect1_dropShadow_13_82"/>
<feBlend mode="normal" in="SourceGraphic" in2="effect1_dropShadow_13_82" result="shape"/>
</filter>
<filter id="filter1_d_13_82" x="-202" y="342" width="537" height="435" filterUnits="userSpaceOnUse" color-interpolation-filters="sRGB">
<feFlood flood-opacity="0" result="BackgroundImageFix"/>
<feColorMatrix in="SourceAlpha" type="matrix" values="0 0 0 0 0 0 0 0 0 0 0 0 0 0 0 0 0 0 127 0" result="hardAlpha"/>
<feOffset/>
<feGaussianBlur stdDeviation="10"/>
<feComposite in2="hardAlpha" operator="out"/>
<feColorMatrix type="matrix" values="0 0 0 0 0.027451 0 0 0 0 0.184314 0 0 0 0 0.00392157 0 0 0 1 0"/>
<feBlend mode="normal" in2="BackgroundImageFix" result="effect1_dropShadow_13_82"/>
<feBlend mode="normal" in="SourceGraphic" in2="effect1_dropShadow_13_82" result="shape"/>
</filter>
<filter id="filter2_d_13_82" x="108" y="336" width="702" height="672" filterUnits="userSpaceOnUse" color-interpolation-filters="sRGB">
<feFlood flood-opacity="0" result="BackgroundImageFix"/>
<feColorMatrix in="SourceAlpha" type="matrix" values="0 0 0 0 0 0 0 0 0 0 0 0 0 0 0 0 0 0 127 0" result="hardAlpha"/>
<feOffset/>
<feGaussianBlur stdDeviation="10"/>
<feComposite in2="hardAlpha" operator="out"/>
<feColorMatrix type="matrix" values="0 0 0 0 0.027451 0 0 0 0 0.184314 0 0 0 0 0.00392157 0 0 0 1 0"/>
<feBlend mode="normal" in2="BackgroundImageFix" result="effect1_dropShadow_13_82"/>
<feBlend mode="normal" in="SourceGraphic" in2="effect1_dropShadow_13_82" result="shape"/>
</filter>
<filter id="filter3_d_13_82" x="540" y="274" width="611" height="587" filterUnits="userSpaceOnUse" color-interpolation-filters="sRGB">
<feFlood flood-opacity="0" result="BackgroundImageFix"/>
<feColorMatrix in="SourceAlpha" type="matrix" values="0 0 0 0 0 0 0 0 0 0 0 0 0 0 0 0 0 0 127 0" result="hardAlpha"/>
<feOffset/>
<feGaussianBlur stdDeviation="10"/>
<feComposite in2="hardAlpha" operator="out"/>
<feColorMatrix type="matrix" values="0 0 0 0 0.0288206 0 0 0 0 0.183333 0 0 0 0 0.00458333 0 0 0 1 0"/>
<feBlend mode="normal" in2="BackgroundImageFix" result="effect1_dropShadow_13_82"/>
<feBlend mode="normal" in="SourceGraphic" in2="effect1_dropShadow_13_82" result="shape"/>
</filter>
<clipPath id="clip0_13_82">
<rect width="800" height="600" fill="white"/>
</clipPath>
</defs>
</svg>
