<svg width="800" height="600" viewBox="0 0 800 600" fill="none" xmlns="http://www.w3.org/2000/svg">
<g clip-path="url(#clip0_2_99)">
<rect width="800" height="600" fill="#BEBEBE"/>
<path d="M575.407 521.5C575.407 663.161 431.019 778 252.907 778C74.7952 778 -69.593 663.161 -69.593 521.5C-69.593 379.839 74.7952 265 252.907 265C431.019 265 575.407 379.839 575.407 521.5Z" fill="#253518"/>
<g filter="url(#filter0_d_2_99)">
<ellipse cx="738.81" cy="422.054" rx="407" ry="241" transform="rotate(-9.37097 738.81 422.054)" fill="#253518"/>
</g>
<g filter="url(#filter1_d_2_99)">
<ellipse cx="66.5" cy="559.5" rx="248.5" ry="197.5" fill="#2B3F1B"/>
</g>
<g filter="url(#filter2_d_2_99)">
<ellipse cx="440" cy="678" rx="331" ry="316" fill="#2B3F1B"/>
</g>
<g filter="url(#filter3_d_2_99)">
<path d="M1131 567.5C1131 718.55 1003.18 841 845.5 841C687.823 841 560 718.55 560 567.5C560 416.45 687.823 294 845.5 294C1003.18 294 1131 416.45 1131 567.5Z" fill="#2B3F1B"/>
</g>
<g filter="url(#filter4_d_2_99)">
<ellipse cx="18.5" cy="80.5" rx="127.5" ry="95.5" fill="#4E4E4E"/>
</g>
<g filter="url(#filter5_d_2_99)">
<ellipse cx="194.5" cy="22.5" rx="127.5" ry="95.5" fill="#4E4E4E"/>
</g>
<g filter="url(#filter6_d_2_99)">
<ellipse cx="719.5" cy="-3.5" rx="127.5" ry="95.5" fill="#4E4E4E"/>
</g>
<g filter="url(#filter7_d_2_99)">
<ellipse cx="540.5" cy="48.5" rx="131.5" ry="95.5" fill="#4E4E4E"/>
</g>
<g filter="url(#filter8_d_2_99)">
<ellipse cx="366.522" cy="3.11535" rx="128.072" ry="132.401" transform="rotate(-15.9481 366.522 3.11535)" fill="#4E4E4E"/>
</g>
<path d="M92.5342 220C92.5342 220 99.2177 232.469 96.2321 235.258C93.2466 238.047 92.0075 237.063 88.8363 235.258C85.6651 233.453 92.5342 220 92.5342 220Z" fill="#3977EF"/>
<path d="M113.534 321C113.534 321 120.218 333.469 117.232 336.258C114.247 339.047 113.008 338.063 109.836 336.258C106.665 334.453 113.534 321 113.534 321Z" fill="#3977EF"/>
<path d="M158.534 159C158.534 159 165.218 171.469 162.232 174.258C159.247 177.047 158.008 176.063 154.836 174.258C151.665 172.453 158.534 159 158.534 159Z" fill="#3977EF"/>
<path d="M167.534 420C167.534 420 174.218 432.469 171.232 435.258C168.247 438.047 167.008 437.063 163.836 435.258C160.665 433.453 167.534 420 167.534 420Z" fill="#3977EF"/>
<path d="M190.534 539C190.534 539 197.218 551.469 194.232 554.258C191.247 557.047 190.008 556.063 186.836 554.258C183.665 552.453 190.534 539 190.534 539Z" fill="#3977EF"/>
<path d="M299.534 136C299.534 136 306.218 148.469 303.232 151.258C300.247 154.047 299.008 153.063 295.836 151.258C292.665 149.453 299.534 136 299.534 136Z" fill="#3977EF"/>
<path d="M221.534 118C221.534 118 228.218 130.469 225.232 133.258C222.247 136.047 221.008 135.063 217.836 133.258C214.665 131.453 221.534 118 221.534 118Z" fill="#3977EF"/>
<path d="M252.534 219C252.534 219 259.218 231.469 256.232 234.258C253.247 237.047 252.008 236.063 248.836 234.258C245.665 232.453 252.534 219 252.534 219Z" fill="#3977EF"/>
<path d="M216.534 305C216.534 305 223.218 317.469 220.232 320.258C217.247 323.047 216.008 322.063 212.836 320.258C209.665 318.453 216.534 305 216.534 305Z" fill="#3977EF"/>
<path d="M288.534 380C288.534 380 295.218 392.469 292.232 395.258C289.247 398.047 288.008 397.063 284.836 395.258C281.665 393.453 288.534 380 288.534 380Z" fill="#3977EF"/>
<path d="M355.534 228C355.534 228 362.218 240.469 359.232 243.258C356.247 246.047 355.008 245.063 351.836 243.258C348.665 241.453 355.534 228 355.534 228Z" fill="#3977EF"/>
<path d="M344.534 472C344.534 472 351.218 484.469 348.232 487.258C345.247 490.047 344.008 489.063 340.836 487.258C337.665 485.453 344.534 472 344.534 472Z" fill="#3977EF"/>
<path d="M29.5342 201C29.5342 201 36.2177 213.469 33.2321 216.258C30.2466 219.047 29.0075 218.063 25.8363 216.258C22.6651 214.453 29.5342 201 29.5342 201Z" fill="#3977EF"/>
<path d="M96.5342 420C96.5342 420 103.218 432.469 100.232 435.258C97.2466 438.047 96.0075 437.063 92.8363 435.258C89.6651 433.453 96.5342 420 96.5342 420Z" fill="#3977EF"/>
<path d="M38.5342 372C38.5342 372 45.2177 384.469 42.2321 387.258C39.2466 390.047 38.0075 389.063 34.8363 387.258C31.6651 385.453 38.5342 372 38.5342 372Z" fill="#3977EF"/>
<path d="M319.534 313C319.534 313 326.218 325.469 323.232 328.258C320.247 331.047 319.008 330.063 315.836 328.258C312.665 326.453 319.534 313 319.534 313Z" fill="#3977EF"/>
<path d="M308.534 557C308.534 557 315.218 569.469 312.232 572.258C309.247 575.047 308.008 574.063 304.836 572.258C301.665 570.453 308.534 557 308.534 557Z" fill="#3977EF"/>
<path d="M167.534 229C167.534 229 174.218 241.469 171.232 244.258C168.247 247.047 167.008 246.063 163.836 244.258C160.665 242.453 167.534 229 167.534 229Z" fill="#3977EF"/>
<path d="M128.534 503C128.534 503 135.218 515.469 132.232 518.258C129.247 521.047 128.008 520.063 124.836 518.258C121.665 516.453 128.534 503 128.534 503Z" fill="#3977EF"/>
<path d="M497.534 136C497.534 136 504.218 148.469 501.232 151.258C498.247 154.047 497.008 153.063 493.836 151.258C490.665 149.453 497.534 136 497.534 136Z" fill="#3977EF"/>
<path d="M486.534 380C486.534 380 493.218 392.469 490.232 395.258C487.247 398.047 486.008 397.063 482.836 395.258C479.665 393.453 486.534 380 486.534 380Z" fill="#3977EF"/>
<path d="M248.534 472C248.534 472 255.218 484.469 252.232 487.258C249.247 490.047 248.008 489.063 244.836 487.258C241.665 485.453 248.534 472 248.534 472Z" fill="#3977EF"/>
<path d="M392.534 144C392.534 144 399.218 156.469 396.232 159.258C393.247 162.047 392.008 161.063 388.836 159.258C385.665 157.453 392.534 144 392.534 144Z" fill="#3977EF"/>
<path d="M381.534 388C381.534 388 388.218 400.469 385.232 403.258C382.247 406.047 381.008 405.063 377.836 403.258C374.665 401.453 381.534 388 381.534 388Z" fill="#3977EF"/>
<path d="M463.534 210C463.534 210 470.218 222.469 467.232 225.258C464.247 228.047 463.008 227.063 459.836 225.258C456.665 223.453 463.534 210 463.534 210Z" fill="#3977EF"/>
<path d="M452.534 454C452.534 454 459.218 466.469 456.232 469.258C453.247 472.047 452.008 471.063 448.836 469.258C445.665 467.453 452.534 454 452.534 454Z" fill="#3977EF"/>
<path d="M645.534 153C645.534 153 652.218 165.469 649.232 168.258C646.247 171.047 645.008 170.063 641.836 168.258C638.665 166.453 645.534 153 645.534 153Z" fill="#3977EF"/>
<path d="M594.534 334C594.534 334 601.218 346.469 598.232 349.258C595.247 352.047 594.008 351.063 590.836 349.258C587.665 347.453 594.534 334 594.534 334Z" fill="#3977EF"/>
<path d="M695.534 118C695.534 118 702.218 130.469 699.232 133.258C696.247 136.047 695.008 135.063 691.836 133.258C688.665 131.453 695.534 118 695.534 118Z" fill="#3977EF"/>
<path d="M695.534 345C695.534 345 702.218 357.469 699.232 360.258C696.247 363.047 695.008 362.063 691.836 360.258C688.665 358.453 695.534 345 695.534 345Z" fill="#3977EF"/>
<path d="M750.534 414C750.534 414 757.218 426.469 754.232 429.258C751.247 432.047 750.008 431.063 746.836 429.258C743.665 427.453 750.534 414 750.534 414Z" fill="#3977EF"/>
<path d="M775.534 351C775.534 351 782.218 363.469 779.232 366.258C776.247 369.047 775.008 368.063 771.836 366.258C768.665 364.453 775.534 351 775.534 351Z" fill="#3977EF"/>
<path d="M654.534 454C654.534 454 661.218 466.469 658.232 469.258C655.247 472.047 654.008 471.063 650.836 469.258C647.665 467.453 654.534 454 654.534 454Z" fill="#3977EF"/>
<path d="M439.534 287C439.534 287 446.218 299.469 443.232 302.258C440.247 305.047 439.008 304.063 435.836 302.258C432.665 300.453 439.534 287 439.534 287Z" fill="#3977EF"/>
<path d="M428.534 531C428.534 531 435.218 543.469 432.232 546.258C429.247 549.047 428.008 548.063 424.836 546.258C421.665 544.453 428.534 531 428.534 531Z" fill="#3977EF"/>
<path d="M8.53423 288C8.53423 288 15.2177 300.469 12.2321 303.258C9.24661 306.047 8.0075 305.063 4.83632 303.258C1.66513 301.453 8.53423 288 8.53423 288Z" fill="#3977EF"/>
<path d="M13.5342 531C13.5342 531 20.2177 543.469 17.2321 546.258C14.2466 549.047 13.0075 548.063 9.83632 546.258C6.66513 544.453 13.5342 531 13.5342 531Z" fill="#3977EF"/>
<path d="M581.534 170C581.534 170 588.218 182.469 585.232 185.258C582.247 188.047 581.008 187.063 577.836 185.258C574.665 183.453 581.534 170 581.534 170Z" fill="#3977EF"/>
<path d="M570.534 414C570.534 414 577.218 426.469 574.232 429.258C571.247 432.047 570.008 431.063 566.836 429.258C563.665 427.453 570.534 414 570.534 414Z" fill="#3977EF"/>
<path d="M540.534 259C540.534 259 547.218 271.469 544.232 274.258C541.247 277.047 540.008 276.063 536.836 274.258C533.665 272.453 540.534 259 540.534 259Z" fill="#3977EF"/>
<path d="M529.534 503C529.534 503 536.218 515.469 533.232 518.258C530.247 521.047 529.008 520.063 525.836 518.258C522.665 516.453 529.534 503 529.534 503Z" fill="#3977EF"/>
<path d="M591.534 543C591.534 543 598.218 555.469 595.232 558.258C592.247 561.047 591.008 560.063 587.836 558.258C584.665 556.453 591.534 543 591.534 543Z" fill="#3977EF"/>
<path d="M755.534 265C755.534 265 762.218 277.469 759.232 280.258C756.247 283.047 755.008 282.063 751.836 280.258C748.665 278.453 755.534 265 755.534 265Z" fill="#3977EF"/>
<path d="M659.534 251C659.534 251 666.218 263.469 663.232 266.258C660.247 269.047 659.008 268.063 655.836 266.258C652.665 264.453 659.534 251 659.534 251Z" fill="#3977EF"/>
<path d="M724.534 193C724.534 193 731.218 205.469 728.232 208.258C725.247 211.047 724.008 210.063 720.836 208.258C717.665 206.453 724.534 193 724.534 193Z" fill="#3977EF"/>
<path d="M766.534 110C766.534 110 773.218 122.469 770.232 125.258C767.247 128.047 766.008 127.063 762.836 125.258C759.665 123.453 766.534 110 766.534 110Z" fill="#3977EF"/>
<path d="M720.534 509C720.534 509 727.218 521.469 724.232 524.258C721.247 527.047 720.008 526.063 716.836 524.258C713.665 522.453 720.534 509 720.534 509Z" fill="#3977EF"/>
<path d="M487.296 60.1367L447.917 132.927L436.06 107.147L487.296 60.1367Z" fill="#EBEBEB"/>
<path d="M423.244 184.335L462.458 111.315L474.387 136.998L423.244 184.335Z" fill="#EBEBEB"/>
<rect width="32.7657" height="25.035" transform="matrix(0.417866 0.908509 -0.603249 0.797553 458.615 103.182)" fill="#EBEBEB"/>
</g>
<defs>
<filter id="filter0_d_2_99" x="302.299" y="170.146" width="847.021" height="533.817" filterUnits="userSpaceOnUse" color-interpolation-filters="sRGB">
<feFlood flood-opacity="0" result="BackgroundImageFix"/>
<feColorMatrix in="SourceAlpha" type="matrix" values="0 0 0 0 0 0 0 0 0 0 0 0 0 0 0 0 0 0 127 0" result="hardAlpha"/>
<feOffset dx="-13" dy="15"/>
<feGaussianBlur stdDeviation="10"/>
<feComposite in2="hardAlpha" operator="out"/>
<feColorMatrix type="matrix" values="0 0 0 0 0.027451 0 0 0 0 0.184314 0 0 0 0 0.00392157 0 0 0 1 0"/>
<feBlend mode="normal" in2="BackgroundImageFix" result="effect1_dropShadow_2_99"/>
<feBlend mode="normal" in="SourceGraphic" in2="effect1_dropShadow_2_99" result="shape"/>
</filter>
<filter id="filter1_d_2_99" x="-202" y="342" width="537" height="435" filterUnits="userSpaceOnUse" color-interpolation-filters="sRGB">
<feFlood flood-opacity="0" result="BackgroundImageFix"/>
<feColorMatrix in="SourceAlpha" type="matrix" values="0 0 0 0 0 0 0 0 0 0 0 0 0 0 0 0 0 0 127 0" result="hardAlpha"/>
<feOffset/>
<feGaussianBlur stdDeviation="10"/>
<feComposite in2="hardAlpha" operator="out"/>
<feColorMatrix type="matrix" values="0 0 0 0 0.027451 0 0 0 0 0.184314 0 0 0 0 0.00392157 0 0 0 1 0"/>
<feBlend mode="normal" in2="BackgroundImageFix" result="effect1_dropShadow_2_99"/>
<feBlend mode="normal" in="SourceGraphic" in2="effect1_dropShadow_2_99" result="shape"/>
</filter>
<filter id="filter2_d_2_99" x="89" y="342" width="702" height="672" filterUnits="userSpaceOnUse" color-interpolation-filters="sRGB">
<feFlood flood-opacity="0" result="BackgroundImageFix"/>
<feColorMatrix in="SourceAlpha" type="matrix" values="0 0 0 0 0 0 0 0 0 0 0 0 0 0 0 0 0 0 127 0" result="hardAlpha"/>
<feOffset/>
<feGaussianBlur stdDeviation="10"/>
<feComposite in2="hardAlpha" operator="out"/>
<feColorMatrix type="matrix" values="0 0 0 0 0.027451 0 0 0 0 0.184314 0 0 0 0 0.00392157 0 0 0 1 0"/>
<feBlend mode="normal" in2="BackgroundImageFix" result="effect1_dropShadow_2_99"/>
<feBlend mode="normal" in="SourceGraphic" in2="effect1_dropShadow_2_99" result="shape"/>
</filter>
<filter id="filter3_d_2_99" x="540" y="274" width="611" height="587" filterUnits="userSpaceOnUse" color-interpolation-filters="sRGB">
<feFlood flood-opacity="0" result="BackgroundImageFix"/>
<feColorMatrix in="SourceAlpha" type="matrix" values="0 0 0 0 0 0 0 0 0 0 0 0 0 0 0 0 0 0 127 0" result="hardAlpha"/>
<feOffset/>
<feGaussianBlur stdDeviation="10"/>
<feComposite in2="hardAlpha" operator="out"/>
<feColorMatrix type="matrix" values="0 0 0 0 0.0288206 0 0 0 0 0.183333 0 0 0 0 0.00458333 0 0 0 1 0"/>
<feBlend mode="normal" in2="BackgroundImageFix" result="effect1_dropShadow_2_99"/>
<feBlend mode="normal" in="SourceGraphic" in2="effect1_dropShadow_2_99" result="shape"/>
</filter>
<filter id="filter4_d_2_99" x="-119" y="-20" width="275" height="211" filterUnits="userSpaceOnUse" color-interpolation-filters="sRGB">
<feFlood flood-opacity="0" result="BackgroundImageFix"/>
<feColorMatrix in="SourceAlpha" type="matrix" values="0 0 0 0 0 0 0 0 0 0 0 0 0 0 0 0 0 0 127 0" result="hardAlpha"/>
<feOffset dy="5"/>
<feGaussianBlur stdDeviation="5"/>
<feComposite in2="hardAlpha" operator="out"/>
<feColorMatrix type="matrix" values="0 0 0 0 0.533333 0 0 0 0 0.495556 0 0 0 0 0.495556 0 0 0 1 0"/>
<feBlend mode="normal" in2="BackgroundImageFix" result="effect1_dropShadow_2_99"/>
<feBlend mode="normal" in="SourceGraphic" in2="effect1_dropShadow_2_99" result="shape"/>
</filter>
<filter id="filter5_d_2_99" x="57" y="-78" width="275" height="211" filterUnits="userSpaceOnUse" color-interpolation-filters="sRGB">
<feFlood flood-opacity="0" result="BackgroundImageFix"/>
<feColorMatrix in="SourceAlpha" type="matrix" values="0 0 0 0 0 0 0 0 0 0 0 0 0 0 0 0 0 0 127 0" result="hardAlpha"/>
<feOffset dy="5"/>
<feGaussianBlur stdDeviation="5"/>
<feComposite in2="hardAlpha" operator="out"/>
<feColorMatrix type="matrix" values="0 0 0 0 0.533333 0 0 0 0 0.495556 0 0 0 0 0.495556 0 0 0 1 0"/>
<feBlend mode="normal" in2="BackgroundImageFix" result="effect1_dropShadow_2_99"/>
<feBlend mode="normal" in="SourceGraphic" in2="effect1_dropShadow_2_99" result="shape"/>
</filter>
<filter id="filter6_d_2_99" x="582" y="-104" width="275" height="211" filterUnits="userSpaceOnUse" color-interpolation-filters="sRGB">
<feFlood flood-opacity="0" result="BackgroundImageFix"/>
<feColorMatrix in="SourceAlpha" type="matrix" values="0 0 0 0 0 0 0 0 0 0 0 0 0 0 0 0 0 0 127 0" result="hardAlpha"/>
<feOffset dy="5"/>
<feGaussianBlur stdDeviation="5"/>
<feComposite in2="hardAlpha" operator="out"/>
<feColorMatrix type="matrix" values="0 0 0 0 0.533333 0 0 0 0 0.495556 0 0 0 0 0.495556 0 0 0 1 0"/>
<feBlend mode="normal" in2="BackgroundImageFix" result="effect1_dropShadow_2_99"/>
<feBlend mode="normal" in="SourceGraphic" in2="effect1_dropShadow_2_99" result="shape"/>
</filter>
<filter id="filter7_d_2_99" x="399" y="-52" width="283" height="211" filterUnits="userSpaceOnUse" color-interpolation-filters="sRGB">
<feFlood flood-opacity="0" result="BackgroundImageFix"/>
<feColorMatrix in="SourceAlpha" type="matrix" values="0 0 0 0 0 0 0 0 0 0 0 0 0 0 0 0 0 0 127 0" result="hardAlpha"/>
<feOffset dy="5"/>
<feGaussianBlur stdDeviation="5"/>
<feComposite in2="hardAlpha" operator="out"/>
<feColorMatrix type="matrix" values="0 0 0 0 0.533333 0 0 0 0 0.495556 0 0 0 0 0.495556 0 0 0 1 0"/>
<feBlend mode="normal" in2="BackgroundImageFix" result="effect1_dropShadow_2_99"/>
<feBlend mode="normal" in="SourceGraphic" in2="effect1_dropShadow_2_99" result="shape"/>
</filter>
<filter id="filter8_d_2_99" x="228.085" y="-133.998" width="276.875" height="284.226" filterUnits="userSpaceOnUse" color-interpolation-filters="sRGB">
<feFlood flood-opacity="0" result="BackgroundImageFix"/>
<feColorMatrix in="SourceAlpha" type="matrix" values="0 0 0 0 0 0 0 0 0 0 0 0 0 0 0 0 0 0 127 0" result="hardAlpha"/>
<feOffset dy="5"/>
<feGaussianBlur stdDeviation="5"/>
<feComposite in2="hardAlpha" operator="out"/>
<feColorMatrix type="matrix" values="0 0 0 0 0.533333 0 0 0 0 0.495556 0 0 0 0 0.495556 0 0 0 1 0"/>
<feBlend mode="normal" in2="BackgroundImageFix" result="effect1_dropShadow_2_99"/>
<feBlend mode="normal" in="SourceGraphic" in2="effect1_dropShadow_2_99" result="shape"/>
</filter>
<clipPath id="clip0_2_99">
<rect width="800" height="600" fill="white"/>
</clipPath>
</defs>
</svg>
